<svg version="1.2" xmlns="http://www.w3.org/2000/svg" viewBox="0 0 24 24" width="24" height="24">
	<title>11-svg</title>
	<style>
		.s0 { fill: none } 
		.s1 { fill: #e4e4e4 } 
		.s2 { fill: none;stroke: #c9c9c9;stroke-linecap: round;stroke-width: 1.7 } 
	</style>
	<path id="prefix__Path_12673" fill-rule="evenodd" class="s0" d="m23.9 0v23.1h-23.9v-23.1z"/>
	<path id="prefix__Path_12674" class="s1" d="m3.6 9.4v8q-0.1 0.3 0.1 0.7 0.1 0.3 0.4 0.5 0.2 0.3 0.5 0.4 0.4 0.2 0.7 0.2h12.8q0.4 0 0.7-0.2 0.3-0.1 0.6-0.4 0.2-0.2 0.4-0.5 0.1-0.4 0.1-0.7v-8q0-0.2 0-0.4-0.1-0.2-0.2-0.4-0.1-0.2-0.2-0.4-0.1-0.1-0.3-0.3l-6.4-5q-0.2-0.1-0.5-0.2-0.3-0.1-0.6-0.1-0.3 0-0.5 0.1-0.3 0.1-0.5 0.2l-6.4 5q-0.2 0.2-0.3 0.3-0.2 0.2-0.3 0.4-0.1 0.2-0.1 0.4 0 0.2 0 0.4z"/>
	<path id="prefix__Line_1" fill-rule="evenodd" class="s2" d="m4.9 22.3h14.2"/>
</svg>