<svg version="1.2" xmlns="http://www.w3.org/2000/svg" viewBox="0 0 24 24" width="24" height="24">
	<title>33-svg</title>
	<style>
		.s0 { fill: none } 
		.s1 { fill: #e4e4e4 } 
		.s2 { fill: none;stroke: #c9c9c9;stroke-linecap: round;stroke-linejoin: round;stroke-width: 1.3 } 
	</style>
	<path id="prefix__Path_11279" fill-rule="evenodd" class="s0" d="m23.9 0v24h-23.9v-24z"/>
	<path id="prefix__Path_11280" class="s1" d="m16 21h-8q-1 0-1.9-0.4-0.9-0.4-1.6-1.1-0.7-0.7-1.1-1.6-0.4-0.9-0.4-1.9v-7.4q0-0.2 0.1-0.4 0-0.1 0.2-0.3 0.1-0.1 0.3-0.2 0.2-0.1 0.4-0.1h16q0.1 0 0.3 0.1 0.2 0.1 0.4 0.2 0.1 0.2 0.2 0.3 0 0.2 0 0.4v7.4q0 1-0.3 1.9-0.4 0.9-1.1 1.6-0.7 0.7-1.6 1.1-0.9 0.4-1.9 0.4z"/>
	<path id="prefix__Path_11281" fill-rule="evenodd" class="s2" d="m16 11v-6q0-0.4-0.2-0.8-0.1-0.3-0.4-0.6-0.3-0.3-0.7-0.5-0.3-0.1-0.7-0.1h-4q-0.4 0-0.8 0.1-0.4 0.2-0.6 0.5-0.3 0.3-0.5 0.6-0.1 0.4-0.1 0.8v6"/>
</svg>