<svg xmlns="http://www.w3.org/2000/svg" width="37.473" height="54.256" viewBox="0 0 37.473 54.256">
    <path id="prefix__Path_3238" d="M196.887 270.381a3.473 3.473 0 0 0-.046.4q-.016 10.52-.029 21.041c0 2.037 0 4.074-.06 6.109a3.157 3.157 0 0 1-1.262 2.62 4.007 4.007 0 0 1-1.034.472c-.3.1-.354.04-.353-.284.009-2.3.025-4.6.027-6.9q.013-12.591.014-25.183a4.508 4.508 0 0 0-2.124-3.757 6.523 6.523 0 0 0-1.9-.858q-4.007-1.277-8.011-2.564c-1.173-.374-2.346-.751-3.526-1.1a5.277 5.277 0 0 0-2.936-.225 7.4 7.4 0 0 0-1.521.631c-2.434 1.31-4.855 2.642-7.281 3.967-.656.359-1.329.694-1.961 1.092a3.538 3.538 0 0 0-1.747 2.343 1.874 1.874 0 0 0-.03.355v31.83a2.825 2.825 0 0 0 .409 1.558 1.512 1.512 0 0 0 .856.646q4.428 1.384 8.856 2.773c2.188.685 4.368 1.4 6.569 2.038a6.083 6.083 0 0 0 4.5-.942 3.567 3.567 0 0 0 1.4-2.76c.061-2.341.049-4.685.061-7.027.007-1.372-.025-2.745.01-4.116a6.065 6.065 0 0 0-1.741-4.388 11.443 11.443 0 0 0-2.389-1.968c.252-.086.472-.158.69-.237a7.3 7.3 0 0 0 2.5-1.4 2.65 2.65 0 0 0 .936-2.045c-.007-2.625 0-5.25 0-7.874a3.381 3.381 0 0 0-2.52-3.456c-2.122-.671-4.25-1.322-6.376-1.979q-2.823-.874-5.648-1.744c-.151-.047-.3-.1-.488-.158a4.01 4.01 0 0 1 2.8-2.114 3.638 3.638 0 0 1 1.723.237c2.369.763 4.739 1.521 7.1 2.3.975.322 1.955.644 2.893 1.057a6.484 6.484 0 0 1 2.343 1.773 3.947 3.947 0 0 1 1.007 2.634c-.009 2.088 0 4.176-.013 6.264-.007 1.534-.051 3.068-.031 4.6a2.785 2.785 0 0 1-1.329 2.465c-.1.067-.2.13-.323.215.075.065.127.115.184.16a3.666 3.666 0 0 1 1.4 2.6 12.068 12.068 0 0 1 .05 1.274c0 4.3.013 8.607-.006 12.911a8.239 8.239 0 0 1-.841 3.779 5.491 5.491 0 0 1-3.761 2.89 8.007 8.007 0 0 1-3.565.1 25.178 25.178 0 0 1-2.46-.747q-3.644-1.154-7.286-2.313-2.841-.9-5.681-1.813c-.558-.178-1.113-.367-1.675-.535a3.737 3.737 0 0 1-2.479-2.384 6.128 6.128 0 0 1-.359-2.255c-.007-1.636-.005-3.273-.005-4.909v-22.089c0-1.713-.043-3.428.037-5.137a5.678 5.678 0 0 1 2.813-4.746c1.182-.733 2.455-1.318 3.7-1.955 2.2-1.131 4.408-2.25 6.611-3.376a6.359 6.359 0 0 1 4.087-.759 12.838 12.838 0 0 1 1.612.464c1.789.57 3.573 1.154 5.362 1.723 1.538.489 3.08.966 4.62 1.447 1.119.35 2.262.638 3.351 1.064a6.309 6.309 0 0 1 3.964 4.113 11 11 0 0 1 .246 1.351c.02.116.044.231.066.346z" data-name="Path 3238" transform="translate(-159.914 -256.836)" style="fill:#ff6f20;stroke:#ff7123;stroke-linecap:round"/>
</svg>
