<svg xmlns="http://www.w3.org/2000/svg" id="prefix__Group_6712" width="26.934" height="26.971" data-name="Group 6712" viewBox="0 0 26.934 26.971">
    <g id="prefix__Group_6710" data-name="Group 6710" transform="translate(6.143 2.604)">
        <g id="prefix__Group_6709" data-name="Group 6709">
            <path id="prefix__Path_12349" d="M-353.936 13.994v1a1.5 1.5 0 0 0-.018.163l-.012 8.6c0 .831 0 1.664-.024 2.5a1.288 1.288 0 0 1-.516 1.07 1.618 1.618 0 0 1-.422.193c-.124.042-.145.017-.144-.116 0-.94.01-1.88.01-2.82q.005-5.144.006-10.288a1.842 1.842 0 0 0-.867-1.535 2.664 2.664 0 0 0-.775-.35q-1.637-.522-3.273-1.047c-.478-.153-.958-.307-1.44-.45a2.159 2.159 0 0 0-1.2-.092 3.021 3.021 0 0 0-.621.258q-1.024.55-2.042 1.11l-1.586-.442c.234-.118.47-.234.7-.353.9-.462 1.8-.919 2.7-1.379a2.6 2.6 0 0 1 1.669-.31 5.22 5.22 0 0 1 .659.19c.73.232 1.459.471 2.19.7.628.2 1.258.395 1.887.591.458.143.924.261 1.369.435a2.577 2.577 0 0 1 1.62 1.68 4.488 4.488 0 0 1 .1.551c.012.047.021.094.03.141z" data-name="Path 12349" transform="translate(369.517 -9.666)" style="fill:#c9c9c9;stroke:#c9c9c9;stroke-width:.5px"/>
            <path id="prefix__Union_9" d="M8.152 19.616a10.423 10.423 0 0 1-1-.306q-1.489-.471-2.976-.945l-2.321-.74c-.229-.073-.455-.15-.685-.218a1.529 1.529 0 0 1-1.012-.974 2.5 2.5 0 0 1-.147-.921v-2.006-9.023c0-.7-.019-1.4.014-2.1A2.323 2.323 0 0 1 1.168.445C1.429.284 1.7.14 1.977 0l1.585.442c.933.267 2.345.731 2.5.782.968.312 1.936.621 2.9.94.4.131.8.263 1.182.432a2.646 2.646 0 0 1 .957.724 1.613 1.613 0 0 1 .415 1.08v2.56c0 .627-.022 1.252-.013 1.88a1.136 1.136 0 0 1-.543 1.006c-.04.027-.079.054-.132.088l.075.065a1.5 1.5 0 0 1 .572 1.063 4.794 4.794 0 0 1 .021.52c0 1.759.006 3.517 0 5.275a3.37 3.37 0 0 1-.345 1.544 2.238 2.238 0 0 1-1.536 1.18 3.431 3.431 0 0 1-.831.1 3.086 3.086 0 0 1-.632-.065zm-.23-1.248c-.9-.261-1.789-.552-2.683-.832.894.281 1.784.571 2.683.832zm2.437-4.593v-.84c-.003.28 0 .565 0 .84zM8.675 9.708a4.666 4.666 0 0 1 .977.8 2.486 2.486 0 0 1 .712 1.727 2.486 2.486 0 0 0-.712-1.727 4.666 4.666 0 0 0-.977-.8zM1.831 1.4a1.447 1.447 0 0 0-.715.96.8.8 0 0 0-.016.14v0a.8.8 0 0 1 .011-.142A1.449 1.449 0 0 1 1.83 1.4a.561.561 0 0 1 .47-.06c1.212.388 3.767 1.223 4.424 1.427-.655-.204-3.21-1.039-4.424-1.427a.582.582 0 0 0-.176-.027.549.549 0 0 0-.293.087zm8.53 6.8V6.994q-.002.606 0 1.206zM9.324 3.574a1.483 1.483 0 0 1 1.035 1.414v0a1.483 1.483 0 0 0-1.035-1.414z" data-name="Union 9" transform="translate(0 2.143)" style="fill:#e4e4e4"/>
        </g>
    </g>
    <path id="prefix__Path_12670" d="M0 0h26.934v26.971H0z" data-name="Path 12670" style="fill:none"/>
</svg>
